<svg width="33" height="25" viewBox="0 0 33 25" fill="none" xmlns="http://www.w3.org/2000/svg">
<path d="M33 12.375C33 12.7397 32.8551 13.0894 32.5973 13.3473C32.3394 13.6051 31.9897 13.75 31.625 13.75H1.375C1.01033 13.75 0.660591 13.6051 0.402728 13.3473C0.144866 13.0894 0 12.7397 0 12.375C0 12.0103 0.144866 11.6606 0.402728 11.4027C0.660591 11.1449 1.01033 11 1.375 11H31.625C31.9897 11 32.3394 11.1449 32.5973 11.4027C32.8551 11.6606 33 12.0103 33 12.375ZM1.375 2.75H31.625C31.9897 2.75 32.3394 2.60513 32.5973 2.34727C32.8551 2.08941 33 1.73967 33 1.375C33 1.01033 32.8551 0.660591 32.5973 0.402728C32.3394 0.144866 31.9897 0 31.625 0H1.375C1.01033 0 0.660591 0.144866 0.402728 0.402728C0.144866 0.660591 0 1.01033 0 1.375C0 1.73967 0.144866 2.08941 0.402728 2.34727C0.660591 2.60513 1.01033 2.75 1.375 2.75ZM31.625 22H1.375C1.01033 22 0.660591 22.1449 0.402728 22.4027C0.144866 22.6606 0 23.0103 0 23.375C0 23.7397 0.144866 24.0894 0.402728 24.3473C0.660591 24.6051 1.01033 24.75 1.375 24.75H31.625C31.9897 24.75 32.3394 24.6051 32.5973 24.3473C32.8551 24.0894 33 23.7397 33 23.375C33 23.0103 32.8551 22.6606 32.5973 22.4027C32.3394 22.1449 31.9897 22 31.625 22Z" fill="#780116"/>
</svg>
