<svg width="75" height="75" viewBox="0 0 75 75" fill="none" xmlns="http://www.w3.org/2000/svg">
<path fill-rule="evenodd" clip-rule="evenodd" d="M50.9257 74.8528V45.8661H60.5728L62.0161 34.5708H50.9219V27.3587C50.9219 24.0876 51.8236 21.857 56.4765 21.857H62.4057V11.7519C59.5344 11.4407 56.6482 11.2908 53.7604 11.3028C45.2116 11.3028 39.3602 16.5687 39.3602 26.2359V34.5708H29.6834V45.8661H39.3565V74.8528H4.09632C1.83295 74.8528 0 73.004 0 70.721V4.13188C0 1.84887 1.83295 0 4.09632 0H70.1123C72.3757 0 74.2086 1.84887 74.2086 4.13188V70.721C74.2086 73.004 72.3757 74.8528 70.1123 74.8528H50.9257Z" fill="#780116"/>
</svg>
