<svg width="89" height="64" viewBox="0 0 89 64" fill="none" xmlns="http://www.w3.org/2000/svg">
<path d="M35.2992 45.0243L58.1996 31.517L35.2992 18.0097V45.0243ZM86.3066 9.77027C86.8802 11.8864 87.2774 14.7229 87.5421 18.3249C87.851 21.9268 87.9833 25.0335 87.9833 27.7349L88.2481 31.517C88.2481 41.3773 87.5421 48.6262 86.3066 53.2637C85.2035 57.3159 82.6443 59.9273 78.6732 61.0529C76.5993 61.6382 72.8047 62.0434 66.9803 62.3136C61.2442 62.6288 55.9934 62.7638 51.1398 62.7638L44.124 63.034C25.6361 63.034 14.1197 62.3136 9.57492 61.0529C5.60375 59.9273 3.04456 57.3159 1.94146 53.2637C1.36785 51.1476 0.970729 48.311 0.705985 44.7091C0.397117 41.1072 0.264744 38.0005 0.264744 35.299L0 31.517C0 21.6567 0.705985 14.4078 1.94146 9.77027C3.04456 5.71808 5.60375 3.10667 9.57492 1.98107C11.6487 1.39575 15.4434 0.990533 21.2678 0.720388C27.0039 0.405218 32.2547 0.270145 37.1083 0.270145L44.124 0C62.612 0 74.1284 0.720389 78.6732 1.98107C82.6443 3.10667 85.2035 5.71808 86.3066 9.77027Z" fill="#780116"/>
</svg>
