<svg width="33" height="33" viewBox="0 0 33 33" fill="none" xmlns="http://www.w3.org/2000/svg">
<path d="M33 16.5C33 16.9862 32.8551 17.4525 32.5973 17.7964C32.3394 18.1402 31.9897 18.3333 31.625 18.3333H1.375C1.01033 18.3333 0.660591 18.1402 0.402728 17.7964C0.144866 17.4525 0 16.9862 0 16.5C0 16.0138 0.144866 15.5475 0.402728 15.2036C0.660591 14.8598 1.01033 14.6667 1.375 14.6667H31.625C31.9897 14.6667 32.3394 14.8598 32.5973 15.2036C32.8551 15.5475 33 16.0138 33 16.5ZM1.375 3.66667H31.625C31.9897 3.66667 32.3394 3.47351 32.5973 3.1297C32.8551 2.78588 33 2.31956 33 1.83333C33 1.3471 32.8551 0.880788 32.5973 0.536971C32.3394 0.193155 31.9897 0 31.625 0H1.375C1.01033 0 0.660591 0.193155 0.402728 0.536971C0.144866 0.880788 0 1.3471 0 1.83333C0 2.31956 0.144866 2.78588 0.402728 3.1297C0.660591 3.47351 1.01033 3.66667 1.375 3.66667ZM31.625 29.3333H1.375C1.01033 29.3333 0.660591 29.5265 0.402728 29.8703C0.144866 30.2141 0 30.6804 0 31.1667C0 31.6529 0.144866 32.1192 0.402728 32.463C0.660591 32.8068 1.01033 33 1.375 33H31.625C31.9897 33 32.3394 32.8068 32.5973 32.463C32.8551 32.1192 33 31.6529 33 31.1667C33 30.6804 32.8551 30.2141 32.5973 29.8703C32.3394 29.5265 31.9897 29.3333 31.625 29.3333Z" fill="#780116"/>
</svg>
