<svg width="79" height="87" viewBox="0 0 79 87" fill="none" xmlns="http://www.w3.org/2000/svg">
<path d="M62.0571 13.5786C58.6479 9.82052 56.7688 4.99518 56.7693 0H41.3548V59.7072C41.2384 62.939 39.8259 66.0009 37.4154 68.2467C35.0049 70.4926 31.7848 71.7469 28.4345 71.7449C21.3508 71.7449 15.4644 66.1594 15.4644 59.2257C15.4644 50.9437 23.7453 44.7322 32.2757 47.2842V32.0685C15.0653 29.8536 0 42.758 0 59.2257C0 75.2599 13.7683 86.6717 28.3846 86.6717C44.0486 86.6717 56.7693 74.3932 56.7693 59.2257V28.9387C63.0199 33.2716 70.5244 35.5963 78.2199 35.5836V20.7049C78.2199 20.7049 68.8415 21.1383 62.0571 13.5786Z" fill="#780116"/>
</svg>
